<svg xmlns="http://www.w3.org/2000/svg" xmlns:xlink="http://www.w3.org/1999/xlink" xmlns:inkscape="http://www.inkscape.org/namespaces/inkscape" version="1.1" width="1440" height="810" viewBox="0 0 1440 810">
<defs>
<clipPath id="clip_1">
<path transform="matrix(.24,0,0,.24,0,0)" d="M0 0H6000V3375H0Z" clip-rule="evenodd"/>
</clipPath>
<clipPath id="clip_2">
<path transform="matrix(.24,0,0,.24,0,0)" d="M0 0H6000V3375H0Z" clip-rule="evenodd"/>
</clipPath>
<clipPath id="clip_3">
<path transform="matrix(.24,0,0,.24,0,0)" d="M2528.3438 1012.5H3472.0938V2362.5H2528.3438Z" clip-rule="evenodd"/>
</clipPath>
</defs>
<g clip-path="url(#clip_1)">
<path transform="matrix(.75,0,0,.75,0,0)" d="M0 0H1920V1080H0Z" fill="#ffffff"/>
</g>
<g clip-path="url(#clip_2)">
<path transform="matrix(.75,0,0,.75,0,0)" d="M0 0H1920V1080H0Z" fill="#ffffff"/>
</g>
<g clip-path="url(#clip_3)">
<path transform="matrix(.40489809,0,0,.40470953,606.8025,243.11617)" d="M0 0H39.88C39.870004 .32000003 39.86 .64000007 39.86 .97 39.86 12.2 48.96 21.3 60.190004 21.3 71.420009 21.3 80.520008 12.199999 80.520008 .9699993 80.520008 .6399993 80.51 .31999929 80.490009-.00000071525576H113.060009C113.05 .3199993 113.04001 .63999935 113.04001 .9699993 113.04001 12.199999 122.14001 21.3 133.37001 21.3 144.59001 21.3 153.70001 12.199999 153.70001 .9699993 153.70001 .6399993 153.69002 .31999929 153.67002-.00000071525576H186.24002C186.23003 .3199993 186.22002 .63999935 186.22002 .9699993 186.22002 12.199999 195.32003 21.3 206.55002 21.3 217.77002 21.3 226.88002 12.199999 226.88002 .9699993 226.88002 .6399993 226.87003 .31999929 226.85002-.00000071525576H259.42C259.41 .3199993 259.40003 .63999935 259.40003 .9699993 259.40003 12.199999 268.50004 21.3 279.73 21.3 290.95 21.3 300.06 12.199999 300.06 .9699993 300.06 .6399993 300.05 .31999929 300.03-.00000071525576H332.6C332.59 .3199993 332.58003 .63999935 332.58003 .9699993 332.58003 12.199999 341.68003 21.3 352.91 21.3 364.13 21.3 373.24 12.199999 373.24 .9699993 373.24 .6399993 373.22999 .31999929 373.21-.00000071525576H405.78C405.77 .3199993 405.76 .63999935 405.76 .9699993 405.76 12.199999 414.86003 21.3 426.09 21.3 437.31 21.3 446.41999 12.199999 446.41999 .9699993 446.41999 .6399993 446.40998 .31999929 446.38999-.00000071525576H478.96C478.94999 .3199993 478.94 .63999935 478.94 .9699993 478.94 12.199999 488.04 21.3 499.27 21.3 510.49 21.3 519.6 12.199999 519.6 .9699993 519.6 .6399993 519.58999 .31999929 519.56997-.00000071525576H559.44998V34.15C548.22 34.15 539.11996 43.25 539.11996 54.480005 539.11996 65.700008 548.2199 74.810009 559.44998 74.810009V103.26001C548.22 103.26001 539.11996 112.36001 539.11996 123.59001 539.11996 134.82 548.2199 143.92002 559.44998 143.92002V172.38C548.22 172.38 539.11996 181.48001 539.11996 192.71 539.11996 203.94 548.2199 213.04001 559.44998 213.04001V241.49C548.22 241.49 539.11996 250.59001 539.11996 261.82 539.11996 273.05003 548.2199 282.15 559.44998 282.15V310.61C548.22 310.61 539.11996 319.71 539.11996 330.93998 539.11996 342.16999 548.2199 351.26997 559.44998 351.26997V379.71998C548.22 379.71998 539.11996 388.81999 539.11996 400.04997 539.11996 411.27998 548.2199 420.37995 559.44998 420.37995V448.83995C548.22 448.83995 539.11996 457.93995 539.11996 469.16993 539.11996 480.39994 548.2199 489.4999 559.44998 489.4999V517.9499C548.22 517.9499 539.11996 527.04989 539.11996 538.2799 539.11996 549.5099 548.2199 558.6099 559.44998 558.6099V587.06997C548.22 587.06997 539.11996 596.1699 539.11996 607.39999 539.11996 618.62997 548.2199 627.73 559.44998 627.73V656.18C548.22 656.18 539.11996 665.27999 539.11996 676.51 539.11996 687.74 548.2199 696.84 559.44998 696.84V725.30007C548.22 725.30007 539.11996 734.4 539.11996 745.63009 539.11996 756.86007 548.2199 765.9601 559.44998 765.9601V800H519.6C519.6 788.77 510.49 779.67 499.27 779.67 488.03999 779.67 478.94 788.76998 478.94 800H446.42C446.42 788.77 437.31004 779.67 426.09004 779.67 414.86003 779.67 405.76005 788.76998 405.76005 800H373.24006C373.24006 788.77 364.13008 779.67 352.91007 779.67 341.68006 779.67 332.58009 788.76998 332.58009 800H300.0601C300.0601 788.77 290.9501 779.67 279.7301 779.67 268.5001 779.67 259.40013 788.76998 259.40013 800H226.88011C226.88011 788.77 217.77011 779.67 206.55011 779.67 195.32012 779.67 186.22011 788.76998 186.22011 800H153.7001C153.7001 788.77 144.5901 779.67 133.3701 779.67 122.14011 779.67 113.0401 788.76998 113.0401 800H80.51C80.51 788.77 71.41 779.67 60.18 779.67 48.949998 779.67 39.85 788.76998 39.85 800H0V765.84C.13 765.85006 .26 765.85006 .39000003 765.85006 11.62 765.85006 20.72 756.75009 20.72 745.52 20.72 734.29006 11.619999 725.19 .3899994 725.19 .2599994 725.19 .1299994 725.19-.00000062584879 725.19V696.73C.12999937 696.73 .25999937 696.73 .3899994 696.73 11.619999 696.73 20.72 687.63 20.72 676.39999 20.72 665.17 11.619999 656.06997 .3899994 656.06997 .2599994 656.06997 .1299994 656.07998-.00000062584879 656.07998V627.61C.12999937 627.62 .25999937 627.62 .3899994 627.62 11.619999 627.62 20.72 618.52 20.72 607.29 20.72 596.06 11.619999 586.95999 .3899994 586.95999 .2599994 586.95999 .1299994 586.95999-.00000062584879 586.95999V558.49996C.12999937 558.49996 .25999937 558.49996 .3899994 558.49996 11.619999 558.49996 20.72 549.39999 20.72 538.1699 20.72 526.93997 11.619999 517.8399 .3899994 517.8399 .2599994 517.8399 .1299994 517.8499-.00000062584879 517.8499V489.3799C.12999937 489.3799 .25999937 489.38993 .3899994 489.38993 11.619999 489.38993 20.72 480.28993 20.72 469.05995 20.72 457.82994 11.619999 448.72996 .3899994 448.72996 .2599994 448.72996 .1299994 448.72996-.00000062584879 448.72996V420.26997C.12999937 420.26997 .25999937 420.26997 .3899994 420.26997 11.619999 420.26997 20.72 411.16996 20.72 399.93998 20.72 388.70997 11.619999 379.61 .3899994 379.61 .2599994 379.61 .1299994 379.62-.00000062584879 379.62V351.15C.12999937 351.15 .25999937 351.16 .3899994 351.16 11.619999 351.16 20.72 342.06 20.72 330.83003 20.72 319.6 11.619999 310.50004 .3899994 310.50004 .2599994 310.50004 .1299994 310.50004-.00000062584879 310.50004V282.04005C.12999937 282.04005 .25999937 282.04005 .3899994 282.04005 11.619999 282.04005 20.72 272.94004 20.72 261.71006 20.72 250.48006 11.619999 241.38005 .3899994 241.38005 .2599994 241.38005 .1299994 241.38005-.00000062584879 241.39005V213C.12999937 213 .25999937 213.01 .3899994 213.01 11.619999 213.01 20.72 203.90999 20.72 192.68 20.72 181.45 11.619999 172.34999 .3899994 172.34999 .2599994 172.34999 .1299994 172.34999-.00000062584879 172.34999V143.9C.12999937 143.9 .25999937 143.9 .3899994 143.9 11.619999 143.9 20.72 134.79999 20.72 123.56999 20.72 112.34 11.619999 103.23999 .3899994 103.23999 .2599994 103.23999 .1299994 103.23999-.00000062584879 103.24999V74.79C.12999937 74.79 .25999937 74.8 .3899994 74.8 11.619999 74.8 20.72 65.69 20.72 54.47 20.72 43.24 11.619999 34.14 .3899994 34.14 .2599994 34.14 .1299994 34.14-.00000062584879 34.14L0 0Z" fill="#e1cfab" fill-rule="evenodd"/>
<path transform="matrix(.40489809,0,0,.40470953,606.8025,243.11617)" d="M59.22 58.93H500.15V741.07H59.22Z" fill="#819e80" fill-rule="evenodd"/>
<path transform="matrix(.40489809,0,0,.40470953,606.8025,243.11617)" d="M59.22 647.1C67.72 651.17 74.89 654.27999 76.31 653.92 80.21 652.95 161.9 508.34999 191.73 477.22999 221.54999 446.09999 266.28999 416.93 286.4 390.33998 306.5 363.75999 354.49 293.72999 362.91 262.60997 371.35 231.48996 376.21 233.75995 375.88 237.64997 375.55003 241.53997 371.5 255.31996 371.5 262.28999 371.5 269.25999 375.23 270.87998 381.06 268.61 386.88999 266.34 399.87 252.07999 402.78 244.29999 405.7 236.51999 409.27 205.4 414.13 212.20999 418.99 219.01999 405.05003 268.28999 399.86003 274.78 394.68003 281.26 361.61003 304.28 339.56004 338.97 317.52003 373.67 293.21003 396.68 297.09004 397.32 300.98005 397.97 310.39 392.14 307.14 400.56 303.90003 409 295.47 409.32 277.64 419.69 259.81004 430.06 189.45001 504.96 186.22002 517.28 182.98001 529.60006 124.610019 607.41006 119.750019 616.16006 114.890018 624.91006 128.18003 614.85006 130.78002 619.72006 133.37001 624.58 132.72002 628.48007 132.72002 628.48007 132.72002 628.48007 123.320018 624.9 114.24002 633.02 105.16002 641.12 95.44002 660.24 96.08002 668.36007 96.73002 676.46 99.320018 686.84 101.91002 692.67007 103.37002 695.94009 119.38002 720.30007 133.19002 741.07009H97C87.53 726.8301 76.88 710.86007 71.12 702.4001 67.07 696.44009 62.930006 691.3401 59.22 687.2201V647.1Z" fill="#3f2b12" fill-rule="evenodd"/>
<path transform="matrix(.40489809,0,0,.40470953,606.8025,243.11617)" d="M215.61 243.86C215.61 243.86 211.07 254.39 225.66 265.42 240.25 276.45 249.65001 273.85 249.65001 273.85 249.65001 273.85 253.87001 286.66 272.02003 283.26 290.18003 279.86003 297.15003 267.21003 297.15003 267.21003 297.15003 267.21003 303.87004 278.88005 318.46003 274.98 333.05003 271.09 336.29 263.96003 336.29 263.96003 336.29 263.96003 348.61003 263.80003 349.91 251.80002 351.21 239.80002 342.13 241.27002 342.13 241.27002 342.13 241.27002 342.05003 239.24002 338.57 238.03002 335.09 236.81002 329.49003 236.49002 329.49003 236.49002 329.49003 236.49002 338.49003 225.95003 336.71003 214.12003 334.92 202.28003 331.36003 199.05002 327.46003 200.50003 323.57 201.96004 321.96003 206.01003 314.17 209.58003 306.39 213.14003 301.77003 213.55004 298.6 216.07004 295.44 218.58003 295.36003 220.77004 295.36003 220.77004 295.36003 220.77004 293.82 208.45005 280.05003 202.28003 266.27003 196.12003 264.16 191.91004 256.86003 194.67003 249.57003 197.42003 244.38002 207.79003 244.87001 218.98003 245.35 230.17003 249.08002 233.89003 249.08002 233.89003 249.08002 233.89003 238.71002 229.51003 231.42002 234.22003 224.12001 238.92003 221.69002 240.54004 219.26001 241.19004 216.83 241.83 215.61 243.86 215.61 243.86ZM124.07 552.52C121.56 554.11007 119.11 556.14 116.83 558.76 103.87 573.67 103.69 579.19 110.340007 591.19 116.990009 603.18 133.20001 603.5 133.20001 603.5 133.20001 603.5 124.860019 627.33 134.09001 641.92 143.32 656.50997 160.51001 657.81 170.56002 651.16 180.61002 644.50997 179.64002 630.73 179.64002 630.73 179.64002 630.73 191.47002 660.07 217.57 659.58999 243.67002 659.1 236.70001 633.80996 231.51001 623.92 226.33002 614.04 220.49 610.8 220.49 610.8 220.49 610.8 233.45001 608.85 245.62001 594.91 257.78 580.97 254.86002 571.56 248.05 565.73 245.75 563.76 241.07 562.6 235.89 561.93 240.16 555.39 238.35 546.42 234.35 537.77 227.38 522.69 215.22 519.94 215.22 519.94 215.22 519.94 229.19 521.4 232.42 507.94 236.18 507.2 237.58 505.91 237.58 505.91 237.58 505.91 236.36 523.01 256.63 528.04 276.89 533.06 285 514.91 285 514.91 285 514.91 302.66 517.18 313.61 505.74998 324.55 494.31999 319.43998 479.56999 311.81999 475.18998 304.21 470.80998 298.69999 470.64997 298.69999 470.64997 298.69999 470.64997 313.77 458.97996 309.71998 436.76997 305.66999 414.56996 257.03999 438.87995 257.03999 438.87995 257.03999 438.87995 255.87998 431.08995 248.40998 423.74995 253.78998 417.81996 256.31999 410.52995 253.62998 403.86994 252.97998 402.24995 252.19998 400.77995 251.35997 399.42994 253.60997 399.11994 255.79998 398.50993 257.83998 397.54994 273.40998 390.24995 274.37998 387.16993 274.37998 387.16993 274.37998 387.16993 272.99998 394.70994 289.20997 401.35993 305.41996 408.00993 321.87995 399.24995 325.75996 384.33995 329.64997 369.42994 327.70997 362.93995 327.70997 362.93995 327.70997 362.93995 342.61997 367.63996 353.96998 352.88996 365.31999 338.13996 366.12998 333.91996 358.01997 330.67997 349.91996 327.44996 332.24998 323.06999 324.14997 323.54997 316.03999 324.03996 311.49998 328.73997 311.49998 328.73997 311.49998 328.73997 319.93998 319.81996 319.60997 308.79997 319.27998 297.77998 302.74995 279.13996 291.39997 285.12995 280.04997 291.13996 269.50996 304.09996 269.02998 308.47996 268.54997 312.85997 269.18998 315.60997 269.18998 315.60997 269.18998 315.60997 262.21998 306.68995 246.65998 306.04997 231.09998 305.39997 222.02997 304.41996 219.09998 308.79997 216.18997 313.17997 213.26998 316.73997 219.90998 332.62995 221.37998 336.12995 222.78998 339.06996 224.15998 341.54997 215.13997 338.58998 206.94998 343.25996 203.21997 346.97996 198.34998 351.83995 197.86997 355.07997 197.86997 355.07997 197.86997 355.07997 179.70996 335.62995 166.58997 339.02998 153.44997 342.42997 149.88997 358.15998 151.83997 372.25999 153.77997 386.36997 157.66997 388.8 157.66997 388.8 157.66997 388.8 121.99997 391.06999 119.56997 409.55 117.13997 428.03 147.77997 435.33 155.55997 433.86 163.33997 432.4 169.01998 427.21998 169.01998 427.21998 169.01998 427.21998 158.14998 442.12998 166.58998 456.71998 175.01999 471.30998 196.07999 468.70997 204.19998 456.22999 205.20998 454.65 206.12998 453.13999 206.91999 451.66999 210.38999 460.18 215.30998 462.15 215.30998 462.15 215.30998 462.15 208.27999 463.3 204.10999 470.69 203.97998 470.68 203.84999 470.67 203.71999 470.66 193.98999 470.18 182.47998 482.82 182.47998 482.82 182.47998 482.82 169.83998 466.12 157.83998 463.85 145.84998 461.58003 138.22998 469.69 136.27999 476.9 134.33998 484.11 134.81998 490.36 134.81998 490.36 134.81998 490.36 103.129978 484.84999 96.15997 498.46 89.18997 512.08 94.699977 526.66 109.93997 535.41 125.17997 544.17 135.39997 542.22 135.39997 542.22 135.39997 542.22 127.11 543.79 124.07 552.52ZM182.05 555.33 180.45 555.04006 178.37 554.57009C178.53 550.3901 177.76999 547.6601 177.76999 547.6601 177.76999 547.6601 179.09 551.08 182.05 555.33ZM238.89 358.6C238.63 357.54 238.31999 356.49003 237.97 355.48 241.74 357.08003 243.1 357.02003 243.1 357.02003 243.1 357.02003 241.36 357.43 238.89 358.6Z" fill="#fff3e0" fill-rule="evenodd"/>
<path transform="matrix(.40489809,0,0,.40470953,606.8025,243.11617)" d="M282.47 235.51C284.47 235.51 286.31 236.2 287.75 237.37 288.15 235.47 289.84 234.06 291.87 234.06 294.19 234.06 296.08 235.94 296.08 238.27 296.08 238.52 296.06 238.77 296.02 239 298.52 239.93 300.3 242.33 300.3 245.16 300.3 248.79001 297.36 251.73001 293.72999 251.73001 291.77 251.73001 290.00999 250.87001 288.80998 249.50002 287.25999 251.27002 284.98997 252.38002 282.46998 252.38002 278.95997 252.38002 275.93998 250.23003 274.67997 247.17002 274.39997 247.15001 274.13996 247.11002 273.87998 247.05002 273.16999 248.54003 271.63999 249.57003 269.87998 249.57003 267.42997 249.57003 265.44999 247.58002 265.44999 245.13002 265.44999 242.69002 267.43 240.70003 269.87998 240.70003H269.95997C270.50996 238.38002 272.59999 236.65003 275.08998 236.65003 275.91996 236.65003 276.71998 236.84003 277.41996 237.19002 278.83 236.13 280.58 235.51 282.47 235.51ZM185.49 587.45C186.03 587.34 186.58 587.28 187.16 587.28 191.64 587.28 195.27 590.91006 195.27 595.38 195.27 599.86 191.63 603.48 187.16 603.48 186.59 603.48 186.03 603.42 185.48001 603.3 185.01001 606.88 181.95001 609.64 178.25002 609.64 174.21002 609.64 170.95001 606.38 170.95001 602.35006 170.95001 601.96 170.98001 601.58 171.04001 601.2 169.71 601.05 168.68001 599.91006 168.68001 598.55 168.68001 597.08999 169.83 595.92 171.28002 595.87 170.80002 595.2 170.48001 594.4 170.36002 593.54 168.80002 592.85 167.71002 591.27999 167.71002 589.47 167.71002 587 169.71002 585.00997 172.17003 585.00997 172.96002 585.00997 173.72003 585.22 174.36003 585.57998V585.41C174.36003 582.24 176.94004 579.66 180.11003 579.66 183.29003 579.66 185.86003 582.24 185.86003 585.41 185.86 586.12 185.73 586.82 185.49 587.45ZM180.6 570.26C181.62001 570.26 182.46 571.09 182.46 572.12 182.46 573.15 181.63 573.99 180.6 573.99 179.57 573.99 178.73001 573.16 178.73001 572.12 178.73 571.09 179.56 570.26 180.6 570.26ZM192.1 576.91C192.77 576.91 193.32 577.44998 193.32 578.12997 193.32 578.7999 192.78002 579.3499 192.1 579.3499 191.43001 579.3499 190.88 578.80996 190.88 578.12997 190.89 577.45 191.43 576.91 192.1 576.91ZM201.34 587.12C203 587.12 204.33 588.46 204.33 590.11 204.33 591.75997 202.99 593.11 201.34 593.11 199.68 593.11 198.34 591.76 198.34 590.11 198.34 588.45999 199.69 587.12 201.34 587.12ZM200.29 600.4C201.36 600.4 202.23999 601.27 202.23999 602.35006 202.23999 603.43008 201.37 604.30007 200.29 604.30007 199.20999 604.30007 198.34 603.43008 198.34 602.35006 198.34 601.27 199.21 600.4 200.29 600.4ZM188.13 612.4C189.66 612.4 190.89 613.64 190.89 615.15 190.89 616.68008 189.65 617.91006 188.13 617.91006 186.61 617.91006 185.38 616.67007 185.38 615.15 185.38 613.64 186.61 612.4 188.13 612.4ZM162.84 602.19C164.45 602.19 165.76 603.5 165.76 605.1 165.76 606.72 164.43999 608.01998 162.84 608.01998 161.24 608.01998 159.92 606.70999 159.92 605.1 159.92 603.5 161.24 602.19 162.84 602.19ZM162.6 590.68C163.90001 590.68 164.95001 591.72 164.95001 593.02999 164.95001 594.32998 163.90001 595.37997 162.6 595.37997 161.3 595.37997 160.25 594.32998 160.25 593.02999 160.25 591.73 161.31 590.68 162.6 590.68ZM179.16 518.42C180.40001 519.55 181.16 521.19 181.16 523 181.16 526.44 178.37001 529.24 174.92 529.24 172.8 529.24 170.92 528.19 169.8 526.57 169.61 529.23 167.38 531.34 164.67 531.34 162.20999 531.34 160.15 529.60006 159.65 527.29006 159.2 527.4 158.72 527.46 158.22 527.46 154.96 527.46 152.31 524.81 152.31 521.55007 152.31 520.38009 152.65 519.29006 153.23 518.37008 152.55 517.36007 152.15 516.1401 152.15 514.8301 152.15 511.3401 154.98 508.5001 158.47 508.5001 160.52 508.5001 162.34 509.4701 163.49 510.9801 164.65001 509.9401 166.13 509.2301 167.76001 509.0401 167.73001 508.8101 167.72002 508.5801 167.72002 508.3401 167.72002 505.5701 169.97002 503.3201 172.74002 503.3201 175.51003 503.3201 177.76003 505.5701 177.76003 508.3401 177.76003 508.8201 177.70003 509.2901 177.57003 509.74009 179.73003 510.20008 181.35002 512.12008 181.35002 514.4201 181.34 516.08 180.48 517.57 179.16 518.42ZM197.03 495.53C198.08 495.53 198.94 496.38 198.94 497.45 198.94 498.5 198.09 499.37004 197.03 499.37004 195.97 499.37004 195.11 498.51005 195.11 497.45 195.11 496.38 195.96 495.53 197.03 495.53ZM188.78 501.84C189.94 501.84 190.89 502.78 190.89 503.94999 190.89 505.11997 189.95 506.05998 188.78 506.05998 187.62 506.05998 186.67 505.11997 186.67 503.94999 186.67 502.78 187.62 501.84 188.78 501.84ZM196.97 518.86C198.45 518.86 199.65 520.07 199.65 521.54 199.65 523.01998 198.43999 524.20999 196.97 524.20999 195.50002 524.20999 194.3 523.01998 194.3 521.54 194.29 520.07 195.49 518.86 196.97 518.86ZM190.4 530.21C192.29 530.21 193.79999 531.74008 193.79999 533.61007 193.79999 535.48007 192.27999 537.0101 190.4 537.0101 188.51999 537.0101 187.01 535.48007 187.01 533.61007 187.01 531.74008 188.52 530.21 190.4 530.21ZM133.59 528.27C134.61 528.27 135.45 529.10006 135.45 530.13 135.45 531.16006 134.62 532 133.59 532 132.56 532 131.72 531.17 131.72 530.13 131.72 529.11 132.56 528.27 133.59 528.27ZM146.91 534.43C147.95 534.43 148.81 535.27 148.81 536.33 148.81 537.37 147.95999 538.22006 146.91 538.22006 145.87001 538.22006 145.02 537.38 145.02 536.33 145.02 535.27 145.86 534.43 146.91 534.43ZM169.41 537.83C171.34 537.83 172.89 539.39 172.89 541.31 172.89 543.24 171.33 544.79 169.41 544.79 167.49 544.79 165.93001 543.23 165.93001 541.31 165.93 539.39 167.48 537.83 169.41 537.83ZM174.68 487.74C176.37999 487.74 177.75 489.12 177.75 490.81999 177.75 492.52 176.37 493.88999 174.68 493.88999 172.96999 493.88999 171.59999 492.50999 171.59999 490.81999 171.6 489.12 172.97 487.74 174.68 487.74ZM143.79 498.12C145.09999 498.12 146.15 499.16999 146.15 500.47 146.15 501.77 145.09999 502.82 143.79 502.82 142.48999 502.82 141.43999 501.77003 141.43999 500.47 141.44 499.17 142.5 498.12 143.79 498.12ZM141.93 513.52C143.62999 513.52 145.01 514.9 145.01 516.59 145.01 518.30007 143.62 519.67007 141.93 519.67007 140.23999 519.67007 138.84999 518.29006 138.84999 516.59 138.85 514.9 140.24 513.52 141.93 513.52ZM162.2 500.06C164.17 500.06 165.76 501.66 165.76 503.63 165.76 505.6 164.15999 507.19 162.2 507.19 160.23 507.19 158.64 505.59 158.64 503.63 158.63 501.66 160.23 500.06 162.2 500.06ZM258.96 466.65C261.96 467.22999 264.37 469.47999 265.16999 472.4 265.59 472.25 266.02998 472.16999 266.50999 472.16999 268.71 472.16999 270.49 473.94999 270.49 476.15 270.49 477.32 269.97999 478.38 269.16 479.11 269.98 480.21998 270.49 481.61 270.49 483.12 270.49 486.84 267.47999 489.85 263.75999 489.85 260.03999 489.85 257.02998 486.84 257.02998 483.12 257.02998 482.93 257.03999 482.72999 257.04997 482.54 253.25997 482.37 250.15996 479.56 249.52996 475.9H249.48996C246.66996 475.9 244.38996 473.62 244.38996 470.8 244.38996 468.58 245.79996 466.69999 247.75995 465.99 247.66996 465.59 247.62995 465.16 247.62995 464.72 247.62995 461.5 250.23995 458.89 253.45995 458.89 256.67994 458.89 259.28996 461.5 259.28996 464.72 259.3 465.4 259.18 466.05 258.96 466.65ZM287.91 493.58C288.76 493.58 289.45 494.27 289.45 495.12 289.45 495.97 288.77003 496.66999 287.91 496.66999 287.06 496.66999 286.37 495.97999 286.37 495.12 286.37 494.27 287.05 493.58 287.91 493.58ZM256.53 450.14C257.34 450.14 258 450.79 258 451.6 258 452.4 257.35 453.06 256.53 453.06 255.73 453.06 255.06999 452.41 255.06999 451.6 255.08 450.79 255.73 450.14 256.53 450.14ZM239.59 444.46C240.70999 444.46 241.62 445.36 241.62 446.49 241.62 447.59999 240.72 448.50999 239.59 448.50999 238.48 448.50999 237.56999 447.61 237.56999 446.49 237.58 445.37 238.48 444.46 239.59 444.46ZM241.14 452.08C242.4 452.08 243.41 453.09 243.41 454.34999 243.41 455.59999 242.40001 456.61 241.14 456.61 239.88 456.61 238.87 455.59999 238.87 454.34999 238.87 453.1 239.89 452.08 241.14 452.08ZM246.16 483.36C247.05 483.36 247.79001 484.08 247.79001 484.99 247.79001 485.88 247.06002 486.61 246.16 486.61 245.26 486.61 244.54001 485.88999 244.54001 484.99 244.54 484.09 245.27 483.36 246.16 483.36ZM255.89 491.96C257.15 491.96 258.16 492.97 258.16 494.22999 258.16 495.47999 257.15 496.49998 255.89 496.49998 254.63 496.49998 253.62 495.47999 253.62 494.22999 253.62 492.97 254.64 491.96 255.89 491.96ZM276.64 493.1C277.99003 493.1 279.07 494.18 279.07 495.53 279.07 496.87 277.99003 497.96 276.64 497.96 275.29 497.96 274.21003 496.87 274.21003 495.53 274.21 494.18 275.29 493.1 276.64 493.1ZM280.44 476.07C281.92 476.07 283.12 477.26 283.12 478.74003 283.12 480.22004 281.91 481.41004 280.44 481.41004 278.96 481.41004 277.77 480.22004 277.77 478.74003 277.77 477.27 278.97 476.07 280.44 476.07ZM264.73 461.48C265.94 461.48 266.91 462.45 266.91 463.67 266.91 464.87004 265.94 465.86003 264.73 465.86003 263.51 465.86003 262.54 464.88 262.54 463.67 262.54 462.46 263.51 461.48 264.73 461.48ZM198.42 402.87C197.20999 404.78 195.09 406.04 192.67 406.04 191.06999 406.04 189.59999 405.49003 188.43 404.56 188.15 408.2 185.12 411.06 181.4 411.06 177.5 411.06 174.34999 407.91 174.34999 404.01 174.34999 400.66 176.68999 397.85 179.81999 397.14 179.32999 396.28004 179.04999 395.28004 179.04999 394.23 179.04999 390.99003 181.66999 388.37004 184.9 388.37004 185.76999 388.37004 186.59999 388.56004 187.34 388.90003 188.73 385.26 192.09999 382.60005 196.14 382.25004 197.27 380.29005 199.39 378.97004 201.81999 378.97004 205.45 378.97004 208.39 381.91004 208.39 385.54005 208.39 387.08006 207.86 388.48005 206.97 389.61006 207.26 390.55006 207.41 391.56007 207.41 392.59007 207.42 397.85 203.5 402.19 198.42 402.87ZM171.92 369.73C173.18 369.73 174.19 370.74003 174.19 372 174.19 373.25999 173.18001 374.27 171.92 374.27 170.66 374.27 169.65 373.25999 169.65 372 169.65 370.74003 170.67 369.73 171.92 369.73ZM212.2 366.32C213.31999 366.32 214.23 367.22 214.23 368.35 214.23 369.46 213.33 370.38 212.2 370.38 211.09 370.38 210.17 369.47 210.17 368.35 210.17 367.23 211.08 366.32 212.2 366.32ZM213.66 403.93C214.78 403.93 215.69 404.84 215.69 405.96 215.69 407.08 214.79001 407.99 213.66 407.99 212.55 407.99 211.64 407.08 211.64 405.96 211.64 404.84 212.54 403.93 213.66 403.93ZM195.1 410.58C197.07 410.58 198.66 412.18 198.66 414.13999 198.66 416.11 197.06 417.69999 195.1 417.69999 193.13 417.69999 191.54001 416.09999 191.54001 414.13999 191.53 412.18 193.13 410.58 195.1 410.58ZM159.28 401.66C160.98 401.66 162.35 403.04 162.35 404.74 162.35 406.44 160.97 407.81999 159.28 407.81999 157.56999 407.81999 156.2 406.42997 156.2 404.74 156.19 403.04 157.57 401.66 159.28 401.66ZM172.56 390.64C173.81999 390.64 174.83 391.66 174.83 392.91 174.83 394.17 173.82 395.18 172.56 395.18 171.31 395.18 170.29 394.16999 170.29 392.91 170.29 391.66 171.32 390.64 172.56 390.64ZM195.67 369.08C197.59 369.08 199.15 370.65 199.15 372.56 199.15 374.49 197.57999 376.05 195.67 376.05 193.74 376.05 192.19 374.47999 192.19 372.56 192.19 370.64 193.74 369.08 195.67 369.08ZM185.38 376.38C186.72 376.38 187.81 377.46 187.81 378.81 187.81 380.16 186.72 381.24 185.38 381.24 184.03 381.24 182.95001 380.16 182.95001 378.81 182.95 377.46 184.03 376.38 185.38 376.38ZM287.74 339.25C289.38 339.25 290.88999 339.72 292.16999 340.55 292.68 338.31999 294.68 336.65998 297.06 336.65998 299.84 336.65998 302.09 338.90998 302.09 341.67997 302.09 344.45997 299.84 346.70997 297.06 346.70997 296.66 346.70997 296.27 346.65998 295.88999 346.56996 295.91999 346.84996 295.93 347.13996 295.93 347.42994 295.93 349.14994 295.41 350.72993 294.50999 352.03993 297.19999 352.4699 299.24998 354.79994 299.24998 357.5999 299.24998 360.7099 296.72999 363.22993 293.61997 363.22993 292.38996 363.22993 291.25999 362.8399 290.33998 362.17994 289.92997 364.43995 287.93998 366.15995 285.55998 366.15995 282.87998 366.15995 280.69999 363.97996 280.69999 361.28996 280.69999 360.82997 280.77 360.37995 280.88999 359.93995 280.59 359.97996 280.28 359.98994 279.96998 359.98994 279.70997 359.98994 279.44999 359.97993 279.18998 359.95994 278.31999 360.77995 277.13999 361.28993 275.84999 361.28993 273.15998 361.28993 270.97999 359.1199 270.97999 356.42994 270.97999 355.26994 271.38999 354.19993 272.06999 353.35993 271.99 352.91993 271.94999 352.44993 271.94999 351.9699 271.94999 347.53993 275.55 343.94993 279.96998 343.94993 280.09999 343.94993 280.21998 343.95994 280.33998 343.95994 281.63 341.18 284.46 339.25 287.74 339.25ZM290.33 322.72C291.99 322.72 293.33 324.06 293.33 325.71 293.33 327.37 291.97999 328.71 290.33 328.71 288.66999 328.71 287.34 327.36 287.34 325.71 287.33 324.06 288.67 322.72 290.33 322.72ZM262.21 363.73C264.36 363.73 266.1 365.47 266.1 367.62004 266.1 369.77006 264.36003 371.51005 262.21 371.51005 260.05998 371.51005 258.31 369.77006 258.31 367.62004 258.31 365.47 260.06 363.73 262.21 363.73ZM313.02 346.06C314.86 346.06 316.34 347.55 316.34 349.38 316.34 351.22 314.85 352.7 313.02 352.7 311.19 352.7 309.71 351.21003 309.71 349.38 309.71 347.55 311.19 346.06 313.02 346.06ZM298.44 374.43C300.1 374.43 301.43 375.78 301.43 377.43 301.43 379.09 300.09 380.41999 298.44 380.41999 296.78 380.41999 295.44 379.08 295.44 377.43 295.44 375.77 296.78 374.43 298.44 374.43ZM253.85 331.15C254.88 331.15 255.72 331.97999 255.72 333.02 255.72 334.03999 254.89 334.87998 253.85 334.87998 252.83 334.87998 251.99 334.05 251.99 333.02 252 331.98 252.83 331.15 253.85 331.15ZM259.45 348.01C260.80003 348.01 261.88 349.09 261.88 350.44 261.88 351.79 260.80003 352.87 259.45 352.87 258.11003 352.87 257.02003 351.79 257.02003 350.44 257.02 349.09 258.11 348.01 259.45 348.01ZM282.47 333.1C284.26 333.1 285.7 334.55003 285.7 336.33003 285.7 338.13 284.25 339.57 282.47 339.57 280.67 339.57 279.23 338.12 279.23 336.33003 279.23 334.54 280.68 333.1 282.47 333.1ZM272.74 336.33C274.44 336.33 275.81999 337.72 275.81999 339.40998 275.81999 341.11997 274.42997 342.48997 272.74 342.48997 271.05003 342.48997 269.66 341.10997 269.66 339.40998 269.66 337.71 271.05 336.33 272.74 336.33ZM275.33 363.4C277.3 363.4 278.88999 365 278.88999 366.97 278.88999 368.95 277.28999 370.55 275.33 370.55 273.36 370.55 271.77 368.94999 271.77 366.97 271.77 365 273.37 363.4 275.33 363.4ZM288.35 355.6C288.15 355.62 287.95 355.63 287.74003 355.63 287.53004 355.63 287.33003 355.62 287.12004 355.6 286.96003 355.93 286.77003 356.24003 286.57005 356.54 287.08006 356.64 287.57005 356.84 288.02006 357.09 288.05 356.57 288.17 356.07 288.35 355.6ZM320.72 246.69C321.43 246.69 322.02 247.26001 322.02 247.99 322.02 248.70001 321.44 249.29001 320.72 249.29001 320.01 249.29001 319.42 248.71 319.42 247.99 319.43 247.27 320.01 246.69 320.72 246.69ZM309.95 248.31C311.16 248.31 312.14 249.29 312.14 250.5 312.14 251.7 311.16 252.69 309.95 252.69 308.73 252.69 307.76 251.71 307.76 250.5 307.76 249.29 308.73 248.31 309.95 248.31ZM307.19 232.58C308.94 232.58 310.35 234 310.35 235.74 310.35 237.49 308.93 238.90001 307.19 238.90001 305.44 238.90001 304.03 237.48001 304.03 235.74 304.02 234 305.44 232.58 307.19 232.58ZM289.19 225.94C289.95 225.94 290.58003 226.56 290.58003 227.33 290.58003 228.08 289.96003 228.71 289.19 228.71 288.44 228.71 287.81 228.09001 287.81 227.33 287.82 226.56 288.44 225.94 289.19 225.94ZM266.83 224.32C268.49 224.32 269.81999 225.67002 269.81999 227.32 269.81999 228.97 268.47999 230.31002 266.83 230.31002 265.16999 230.31002 263.83 228.97002 263.83 227.32 263.83 225.67 265.17 224.32 266.83 224.32ZM248.02 255.6C248.96 255.6 249.73001 256.36003 249.73001 257.31 249.73001 258.25 248.97002 259.01 248.02 259.01 247.09001 259.01 246.32 258.26 246.32 257.31 246.32 256.36 247.09 255.6 248.02 255.6ZM272.5 259.18C273.98 259.18 275.17 260.37 275.17 261.85 275.17 263.33003 273.97 264.52003 272.5 264.52003 271.02 264.52003 269.82 263.33003 269.82 261.85 269.82 260.37 271.03 259.18 272.5 259.18ZM255.4 244.09C257.28 244.09 258.8 245.62 258.8 247.48999 258.8 249.37999 257.27 250.88999 255.4 250.88999 253.51 250.88999 252 249.36998 252 247.48999 252 245.62 253.51 244.09 255.4 244.09Z" fill="#f4bd00" fill-rule="evenodd"/>
<path transform="matrix(.40489809,0,0,.40470953,606.8025,243.11617)" d="M374.52 626.14C374.65 626.02 374.78999 625.91006 374.94999 625.82 374.99998 625.8 390.18998 617.26 395.46 630.65 398.03 637.18008 400.00999 650.69 399.81999 662.43008 399.66999 671.9501 398.02998 680.49008 394.08 683.73007 392.55 684.99008 390.78 685.59 388.87 685.61007 386.72 685.62008 384.44 684.8901 382.19 683.5101 380.08003 682.2001 377.95 680.31008 375.97 677.9001 370.67 671.4301 366.38 661.2001 366.28 649.1401 366.18 638.31008 368.18 632.2601 370.72 629.06008 371.69 627.82009 372.77 626.98007 373.86003 626.44009L374.02003 626.36007C374.19 626.27 374.36 626.2 374.52 626.14ZM92.33 86.37C98.28 86.43 296.56 88.310009 367.72999 88.310009 389.61 88.310009 407.49 88.700008 421.88999 89.020008 450.9 89.66 465.49 89.98 474.58 86.100009 474.75 81.96001 475.06999 78.73 475.58 76.21001 477.05 69.03001 479.97999 67.07001 485.25999 67.07001 487.36997 67.07001 489.00999 67.62001 490.15 68.600009 491.63 69.840007 492.22999 71.600009 491.99 73.69 491.78 75.43 490.94999 77.41 489.47 79.420009 487.28 82.450008 483.59 85.72001 478.4 88.55L478.37 88.58C478.22 94.1 478.28 101.17 478.44 110.16 478.62 119.82001 477.13 169 475.13 235.5 470.4 392.18 462.77003 645.11 466.99 702.22 475.41 703.52999 481.11 706.19998 483.44999 711.07998 486.24998 716.91 486.72999 721.5499 485.68998 724.44998 485.11997 726.0499 484.09999 727.18997 482.75999 727.80996 481.46 728.39999 479.93 728.4799 478.22999 727.9899 474.58998 726.93997 469.91999 722.99996 465.44999 715.50997 464.71998 714.27999 464.12 710.8599 463.65 705.57998 451.84 704.30996 434.51 705.30996 413.6 706.49996 395.85 707.50997 375.57 708.67996 353.96003 708.67996 319.31004 708.67996 257.25004 709.4899 202.21002 710.2299 149.11002 710.92996 102.49002 711.5499 93.56002 711.25997 90.45002 711.16 87.33002 711.6 84.39002 712.39999 83.86002 718.11996 83.25002 722.36996 82.50002 725.49 79.75002 737.05 75.56002 735.51 68.20002 732.33 65.75002 731.27 64.26002 729.75 63.60002 727.95L63.56002 727.84C62.890024 725.9 63.20002 723.78 64.29002 721.66006 65.25002 719.78 66.85002 717.87008 68.92002 716.10006 71.970027 713.49008 76.11002 711.09 80.75002 709.47006 81.71002 697.9 82.43002 680.76 83.24002 655.76 84.38002 620.64 84.99002 505.85 85.19002 387.43003 85.40002 261.62004 85.15002 131.75003 84.59002 88.94003L83.680019 88.730037C81.08002 88.10004 77.180019 86.04003 73.76002 82.55003 71.210018 79.96004 68.88002 76.57003 67.460018 72.39003 66.41001 69.28003 67.23001 66.93003 69.10001 65.36003 70.24001 64.42003 71.76002 63.830034 73.45001 63.61003 75.02001 63.41003 76.74001 63.52003 78.44001 63.940034 82.95001 65.05003 87.34001 68.37003 88.08001 73.93003 88.20001 74.82003 88.31001 78.93003 88.420009 85.74003 90.38 86.11 91.91 86.32 92.33 86.37ZM367.73 92.21C298.07 92.21 97.48001 90.299999 92.28 90.25 92.15 90.26 92.02 90.26 91.89 90.24 91.88 90.24 90.479999 90.07 88.479999 89.72 89.03999 133.87 89.28999 262.7 89.079998 387.45 88.88 505.95 88.27999 620.80007 87.13 655.9 86.36 679.85006 85.659999 696.66006 84.74 708.33 87.65 707.66006 90.659999 707.3 93.689998 707.4 102.56999 707.68008 149.12999 707.06 202.16 706.37 257.75 705.63 320.44 704.8 353.96003 704.8 375.62004 704.8 395.76 703.64999 413.39 702.64 433.83003 701.47006 450.99003 700.48007 463.34004 701.77 459.05003 639.87 466.58003 390.56004 471.26005 235.42002 473.27006 168.94 474.75004 119.790019 474.57005 110.24001 474.42005 102.20001 474.36006 95.66001 474.46006 90.34001 464.59007 93.87001 449.73005 93.54001 421.81007 92.92001 407.72 92.59 390.22 92.21 367.73 92.21ZM478.56 83.97C482.12 81.75 484.72 79.36 486.32 77.14 487.39 75.659999 487.99003 74.32 488.12 73.22 488.21 72.48 488.06 71.89 487.66 71.56 487.2 71.18 486.4 70.96 485.26 70.96 482.12 70.96 480.35 72.25 479.38 76.979999 479.01 78.84 478.74 81.14 478.56 83.97ZM467.32 706.08C467.72 710.01 468.2 712.56 468.78 713.52 472.7 720.10006 476.5 723.46 479.3 724.28 480.06 724.5 480.69 724.5 481.12998 724.29006 481.52 724.11007 481.83 723.73007 482.03999 723.16006 482.75999 721.15 482.25999 717.59 479.94999 712.78 478.26 709.25 473.9 707.18 467.32 706.08ZM80.36 713.78C76.9 715.19 73.81 717.05007 71.46 719.07 69.76 720.53 68.49 722.03 67.74 723.46 67.14 724.63 66.93 725.72006 67.229999 726.57L67.24999 726.65C67.549999 727.44 68.34999 728.19 69.73999 728.78 74.37999 730.79006 77.00999 731.76 78.719989 724.60006 79.35 721.95 79.88 718.41 80.36 713.78ZM84.54 84.96C84.44 78.93 84.340007 75.29 84.23 74.47 83.73 70.76 80.670009 68.520008 77.51 67.73 76.26 67.43 75.020008 67.340007 73.94 67.48 72.97 67.61 72.130008 67.9 71.58 68.36 70.94 68.9 70.69 69.83 71.14 71.15 72.36 74.740009 74.35 77.630008 76.52 79.85 79.39 82.76 82.51 84.45 84.54 84.96ZM391.84 632.07C389.84 627 385.5 626.64 382 627.35006L382.09 627.44009C383.82 629.16006 384.63 633.31008 384.75 637.30007 384.86 641.27 384.27 645.29006 383.15 646.69009 383.06 646.80007 382.97999 646.9001 382.91 646.9701 381.93 647.94009 380.73 648.0301 379.46 647.4601 378.75 647.13009 377.99 646.5501 377.28999 645.8001 376.66999 645.14016 376.05 644.3101 375.52 643.4401L375.44999 643.3201C373.8 640.5501 372.91999 637.02017 374.52 634.85018 378.28999 629.72018 380.13999 633.59017 380.77 635.51016 380.56999 633.08016 380.12 630.9401 379.34999 630.1801L379.31999 630.1501C378.86 629.7801 378.09999 629.4901 377.22999 629.50009 376.74998 629.50009 376.22999 629.60006 375.69999 629.8401L375.58 629.9101C374.97 630.2101 374.34 630.7101 373.75 631.4701 371.68 634.07009 370.06 639.32009 370.14 649.1001 370.23 660.1901 374.13 669.5501 378.96003 675.4201 380.65003 677.4801 382.44004 679.1001 384.21003 680.1901 385.86003 681.1901 387.42 681.7301 388.82 681.72018 389.84 681.72018 390.79 681.40017 391.6 680.7402 394.55003 678.3102 395.79 670.8802 395.93 662.3702 396.12 651.1 394.25 638.21 391.84 632.07ZM380.45 643.46C380.77003 642.23007 380.93003 640.01 380.87004 637.63 380.62004 638.17 380.12004 638.59 379.48 638.71 378.67 638.88 377.87004 638.51 377.46003 637.85006 377.46003 638.74008 378.03004 640.09 378.77003 641.32L378.83003 641.41006C379.23 642.06008 379.67 642.67007 380.12004 643.14L380.45 643.46ZM446.18 630.11C446.94999 630.83999 446.97999 632.07998 446.25 632.85 445.51 633.63 444.28 633.66 443.5 632.92 443.46 632.88 430.06 619.97 423.07 633.24 422.41 634.51 421.81 635.88 421.29 637.36 419.94 641.18 419.09 645.55 418.72 650.04 419.83 648.58999 421.45 647.33999 423.66 646.55 424.98 646.08 426.49 645.76998 428.23 645.69 433.07 645.45 437.81 647.44 441.43003 651.11 444.77003 654.5 447.15003 659.33999 447.73 665.18 448.04 668.3 447.64 671.37 446.67 674.12 445.61003 677.12 443.85 679.77999 441.59004 681.77 439.28004 683.80007 436.45 685.13 433.27003 685.45 431.08003 685.67 428.74003 685.4 426.32 684.55 425.89 684.39999 425.46003 684.20999 425.03 683.99 419.73 681.2 416.38 673.19 415.17 663.81 414 654.74 414.75 644.26 417.64 636.08 418.22 634.44 418.90003 632.89 419.65003 631.44 429.04 613.57 446.13 630.06 446.18 630.11ZM418.69 660.35C418.77 661.35 418.87 662.33999 419 663.31 420.06 671.51 422.74 678.38 426.82 680.54 427.07 680.67 427.33003 680.77999 427.59 680.87 429.46 681.52999 431.23 681.74 432.86 681.58 435.18998 681.35006 437.28999 680.35006 439.00999 678.85006 440.77 677.30007 442.13999 675.21 442.99 672.81008 443.78 670.57009 444.09999 668.0901 443.84999 665.55007 443.36997 660.65 441.39997 656.61007 438.64997 653.82009 435.80998 650.94009 432.12998 649.37008 428.40998 649.55007 427.05998 649.62008 425.92997 649.84 424.96998 650.18008 423.34999 650.7601 422.24998 651.68008 421.57997 652.7101 420.92997 653.69009 420.66996 654.8001 420.70997 655.81008 420.72996 656.23007 420.80998 656.63009 420.93998 656.98007 421.13999 657.55007 421.99998 657.91006 423.00999 658.06008 423.65998 658.16006 424.36 658.1501 424.99 658.04006 425.56 657.95 426.06 657.78 426.41999 657.54006 426.62998 657.4 426.75999 657.26 426.74 657.13009 426.63 655.86007 426.38999 655.2601 426.09999 655.0301 425.99 654.94009 425.74 654.9601 425.49 655.0201 425.4 655.0401 425.63999 655.7001 425.63999 655.7001 425.71998 656.7601 424.93 657.7101 423.84999 657.80007 422.78999 657.88009 421.83998 657.09 421.74998 656.0101 421.74998 656.00009 421.53999 651.93008 424.62998 651.23007 425.87998 650.95 427.27 651.00009 428.49998 651.97006 429.55998 652.80007 430.37998 654.27 430.60997 656.77 430.76997 658.52 429.94996 659.85006 428.57997 660.76 427.75996 661.31 426.71998 661.69 425.63996 661.87 424.60997 662.04 423.49995 662.06 422.45997 661.9 421.03 661.72 419.7 661.2 418.69 660.35Z" fill="#e1cfab"/>
</g>
<path transform="matrix(1,0,0,-1,0,817.92)" d="M606.8025 250.92002H833.1975V574.92007H606.8025Z" fill-opacity="0"/>
</svg>
